HIERARCHY
ROOT root
{
	OFFSET 0.000000 0.000000 0.000000
	CHANNELS 6 Xposition Yposition Zposition Zrotation Yrotation Xrotation
	JOINT lhip
	{
		OFFSET 0.058581 -0.082280 -0.017664
		CHANNELS 3 Zrotation Yrotation Xrotation
		JOINT lknee
		{
			OFFSET 0.043451 -0.386469 0.008037
			CHANNELS 3 Zrotation Yrotation Xrotation
			JOINT lankle
			{
				OFFSET -0.014790 -0.426874 -0.037428
				CHANNELS 3 Zrotation Yrotation Xrotation
				JOINT ltoe
				{
					OFFSET 0.041054 -0.060286 0.122042
					CHANNELS 3 Zrotation Yrotation Xrotation
					End Site
					{
						OFFSET 0.000000 0.000000 0.000000
					}
				}
			}
		}
	}
	JOINT rhip
	{
		OFFSET -0.060310 -0.090513 -0.013543
		CHANNELS 3 Zrotation Yrotation Xrotation
		JOINT rknee
		{
			OFFSET -0.043257 -0.383688 -0.004843
			CHANNELS 3 Zrotation Yrotation Xrotation
			JOINT rankle
			{
				OFFSET 0.019056 -0.420046 -0.034562
				CHANNELS 3 Zrotation Yrotation Xrotation
				JOINT rtoe
				{
					OFFSET -0.034840 -0.062106 0.130323
					CHANNELS 3 Zrotation Yrotation Xrotation
					End Site
					{
						OFFSET 0.000000 0.000000 0.000000
					}
				}
			}
		}
	}
	JOINT lowerback
	{
		OFFSET 0.004439 0.124404 -0.038385
		CHANNELS 3 Zrotation Yrotation Xrotation
		JOINT upperback
		{
			OFFSET 0.004488 0.137956 0.026820
			CHANNELS 3 Zrotation Yrotation Xrotation
			JOINT chest
			{
				OFFSET -0.002265 0.056032 0.002855
				CHANNELS 3 Zrotation Yrotation Xrotation
				JOINT lowerneck
				{
					OFFSET -0.013390 0.211636 -0.033468
					CHANNELS 3 Zrotation Yrotation Xrotation
					JOINT upperneck
					{
						OFFSET 0.010113 0.088937 0.050410
						CHANNELS 3 Zrotation Yrotation Xrotation
						End Site
						{
							OFFSET 0.000000 0.000000 0.000000
						}
					}
				}
				JOINT lclavicle
				{
					OFFSET 0.071702 0.114000 -0.018898
					CHANNELS 3 Zrotation Yrotation Xrotation
					JOINT lshoulder
					{
						OFFSET 0.122921 0.045205 -0.019046
						CHANNELS 3 Zrotation Yrotation Xrotation
						JOINT lelbow
						{
							OFFSET 0.255332 -0.015649 -0.022946
							CHANNELS 3 Zrotation Yrotation Xrotation
							JOINT lwrist
							{
								OFFSET 0.265709 0.012698 -0.007375
								CHANNELS 3 Zrotation Yrotation Xrotation
								End Site
								{
									OFFSET 0.000000 0.000000 0.000000
								}
							}
						}
					}
				}
				JOINT rclavicle
				{
					OFFSET -0.082954 0.112472 -0.023707
					CHANNELS 3 Zrotation Yrotation Xrotation
					JOINT rshoulder
					{
						OFFSET -0.113228 0.046853 -0.008472
						CHANNELS 3 Zrotation Yrotation Xrotation
						JOINT relbow
						{
							OFFSET -0.260127 -0.014369 -0.031269
							CHANNELS 3 Zrotation Yrotation Xrotation
							JOINT rwrist
							{
								OFFSET -0.269108 0.006794 -0.006027
								CHANNELS 3 Zrotation Yrotation Xrotation
								End Site
								{
									OFFSET 0.000000 0.000000 0.000000
								}
							}
						}
					}
				}
			}
		}
	}
}
MOTION
Frames: 11
Frame Time: 0.033333
1.270712 0.700413 0.994135 -100.051181 0.197677 87.913470 -0.791658 0.219982 -4.497548 -3.360780 -3.308101 15.204623 6.864991 14.225483 -16.266316 0.000000 -0.000000 0.000000 1.347214 0.934728 -6.649108 -0.250512 4.007834 17.361690 2.011059 -7.853162 -15.606858 0.000000 -0.000000 0.000000 -0.515785 0.932548 11.528684 -0.373285 -0.705364 -2.737237 -0.607696 0.381759 2.311739 2.966908 3.042128 -16.148620 1.072588 -2.828129 -1.622095 -26.406928 -2.570381 -0.624609 -49.031081 -5.636121 8.713987 -1.147500 -18.550140 13.783551 -6.487931 -0.912746 2.957746 25.823120 5.435188 1.744887 53.852188 3.484645 14.490989 -12.901521 27.813554 1.043034 4.317234 1.840826 0.708153 
1.270314 0.700309 0.991029 -100.181578 0.305054 88.074381 -0.173458 0.330808 -6.413456 -4.498353 -2.872189 18.705782 7.183335 14.469810 -18.070177 0.000000 -0.000000 0.000000 1.125502 0.786393 -8.072351 0.492605 3.846268 19.842165 1.920851 -7.698542 -17.021989 0.000000 -0.000000 0.000000 -0.471497 1.005810 12.343242 -0.227176 -0.878485 -2.786797 -0.512705 0.280900 2.393384 2.845960 3.508134 -16.921982 0.883850 -2.495415 -2.337969 -26.467122 -3.129376 -0.789283 -48.914552 -5.559718 8.347008 -0.860824 -17.530195 14.119922 -6.762543 -0.231064 3.768294 25.715882 5.688224 1.716415 53.285589 3.645045 14.002904 -12.475691 27.584158 1.366446 4.325308 1.846563 1.044954 
1.270540 0.700119 0.985414 -100.101684 0.486930 88.341917 0.623859 0.257114 -9.106020 -5.721343 -1.976401 23.324452 7.590127 14.463764 -20.326906 0.000000 -0.000000 0.000000 0.951058 0.553719 -10.213855 1.428667 3.563073 23.409849 1.533790 -7.668005 -19.098273 0.000000 -0.000000 0.000000 -0.417056 1.091312 13.776529 -0.003580 -1.074187 -3.419138 -0.326328 0.106187 2.382583 2.839897 4.073089 -18.154669 0.689966 -2.402507 -2.484340 -26.330960 -3.621196 -0.787554 -49.162403 -5.563247 8.229279 -0.767869 -17.557424 14.608490 -6.401613 -0.356891 3.629192 25.454054 5.889286 1.711869 52.842842 3.777956 13.607982 -12.133056 27.432414 1.749347 4.261466 1.751794 0.817467 
1.271818 0.699907 0.977144 -99.855902 0.588695 88.557433 1.238247 0.190719 -12.300057 -6.862548 -1.195631 28.855530 8.095923 14.690116 -22.411570 0.000000 -0.000000 0.000000 0.741308 0.492168 -12.944341 2.143276 2.727720 28.160562 1.066623 -7.665501 -21.339323 0.000000 -0.000000 0.000000 -0.529169 0.928499 15.851720 0.196423 -1.203105 -4.329699 -0.054474 -0.112911 2.422735 2.740925 4.680155 -19.997052 0.486827 -2.127845 -2.894649 -26.181052 -4.043943 -0.856414 -49.593176 -5.631584 8.136557 -0.721584 -18.550695 14.470974 -5.071764 -0.899126 2.829905 25.276431 6.440217 1.729571 52.380400 4.014044 13.366580 -11.752668 27.127730 1.883685 3.568204 1.997847 0.553162 
1.273638 0.700688 0.965635 -99.479794 1.130484 88.768419 2.393072 0.130752 -16.035027 -7.355526 0.304074 35.272941 6.565291 13.620717 -26.137808 0.000000 -0.000000 0.000000 1.662409 1.043840 -16.226410 1.101663 1.078269 34.048985 1.357348 -7.262482 -24.809419 0.000000 -0.000000 0.000000 -0.475762 1.315907 18.026043 1.029905 -1.769406 -4.187332 0.204707 0.117654 1.054192 2.244387 5.256991 -19.212722 0.699852 -1.861156 -6.373469 -26.240146 -5.596219 0.346971 -49.762031 -6.212003 8.700815 -1.181291 -18.950074 11.981446 -2.921773 -4.673606 -1.052745 24.736578 7.134754 2.380813 52.412131 4.520390 12.152117 -12.135097 26.170653 2.019613 3.308099 3.524449 2.075025 
1.274935 0.700465 0.949837 -98.351625 1.362558 88.991673 3.044898 -0.307241 -19.817121 -7.810993 1.500052 41.620245 7.145641 13.228315 -28.543936 0.000000 -0.000000 0.000000 1.491082 0.785883 -19.562075 1.172044 -0.570242 40.050219 0.691847 -7.517064 -27.585396 0.000000 -0.000000 0.000000 -0.720825 1.287191 20.288994 1.551789 -2.136055 -4.422680 0.716508 -0.099956 0.686062 1.959464 5.706374 -20.935939 0.511238 -1.077539 -7.905056 -26.033352 -6.952516 0.968800 -50.291338 -6.533008 9.068046 -1.257079 -20.517663 10.976270 -0.580165 -5.902583 -3.840563 24.220990 8.390680 2.840166 51.724382 5.810342 11.572724 -11.602096 24.808512 1.519021 2.421946 3.608786 1.571705 
1.278654 0.701482 0.930911 -97.263952 1.288232 89.089815 3.512046 -0.462437 -23.684024 -8.493845 2.295040 47.818386 7.360555 12.846653 -30.615529 0.000000 -0.000000 0.000000 1.251124 1.085180 -23.203425 0.792983 -2.003073 46.493591 0.088331 -8.466348 -30.038536 0.000000 -0.000000 0.000000 -1.149708 1.201228 23.003904 1.548394 -2.025779 -4.624108 1.013492 -0.111799 0.486024 1.777826 6.370883 -23.746930 0.336718 -0.418889 -9.216643 -25.965802 -9.256173 1.717943 -50.286873 -6.594780 9.485697 -0.219193 -22.863818 10.401413 5.627126 -7.498699 -4.204001 24.153915 10.974426 3.443626 51.218537 7.581061 10.479248 -11.557159 22.746983 -0.672977 -0.519356 3.628300 -0.088318 
1.281126 0.703198 0.911269 -95.325535 1.203968 89.266544 4.220406 -0.875029 -27.888715 -9.724379 2.916111 54.473043 7.275272 11.915461 -32.383980 0.000000 -0.000000 0.000000 0.899197 0.744880 -26.592349 0.222924 -3.466796 52.818073 -0.491503 -9.605762 -32.292465 0.000000 -0.000000 0.000000 -1.166763 1.346935 25.303676 1.480580 -2.049045 -4.933780 1.007932 -0.137808 0.067649 1.368917 6.891997 -25.749660 0.133953 0.116749 -10.658817 -26.075713 -11.157691 2.424628 -50.419306 -6.437502 9.498931 0.984109 -23.736864 10.062433 9.201506 -8.194936 -5.058771 24.163523 13.694205 4.180718 51.192837 10.327511 9.501612 -11.952040 20.238126 -2.501868 -3.579080 2.838711 0.168628 
1.282292 0.705347 0.893068 -92.938817 0.742451 89.244178 4.405361 -1.899706 -31.283821 -10.667737 3.504569 59.911139 7.404135 11.070805 -33.409624 0.000000 -0.000000 0.000000 0.324294 0.515490 -29.180160 -0.399401 -4.334274 58.249144 -0.941025 -11.327783 -34.252464 0.000000 -0.000000 0.000000 -1.265193 1.641030 27.073779 1.017547 -1.902558 -4.900707 0.826812 -0.027000 -0.425188 1.014638 7.140445 -27.247814 -0.255724 0.538915 -11.758894 -26.642606 -12.801052 3.294824 -50.653191 -5.890272 9.112820 2.925361 -23.372601 7.766156 12.436395 -8.023610 -6.578512 25.008104 17.194439 5.556970 50.697957 14.009224 9.319730 -12.463200 19.008154 -3.463831 -6.728557 2.508377 1.864156 
1.282402 0.708885 0.880389 -90.201367 0.346775 89.232734 4.707798 -3.279704 -34.056836 -11.629399 3.662002 63.944470 7.116578 10.046856 -33.299209 0.000000 -0.000000 0.000000 0.219906 0.020806 -30.733736 -1.400389 -5.053113 61.897474 -1.293259 -13.180589 -35.265391 0.000000 -0.000000 0.000000 -1.207326 2.401289 28.107854 0.412697 -1.441867 -4.798491 0.776589 0.253199 -0.885420 0.358382 8.087675 -28.641657 -1.511048 1.157182 -11.645376 -27.619444 -13.924656 3.695331 -50.959757 -4.588383 8.828317 4.230982 -21.783389 6.461867 14.120062 -7.425600 -7.038377 26.076523 20.858435 6.369487 49.704168 18.038222 10.078205 -12.406139 21.135553 -3.369154 -8.208981 2.790347 1.050750 
1.279435 0.713534 0.877239 -86.012341 -0.050834 88.886890 4.359565 -5.300233 -34.742165 -12.552334 2.506570 64.987973 6.638268 8.831034 -32.640270 0.000000 -0.000000 0.000000 0.084810 -0.826607 -29.878582 -2.414506 -6.210501 62.366695 -1.408564 -15.222211 -35.724371 0.000000 -0.000000 0.000000 -1.008393 3.314084 28.562978 -0.075125 -0.818304 -4.636300 1.031088 0.552914 -1.278010 -0.617686 9.298401 -29.071439 -3.485773 2.313795 -11.428560 -28.546184 -14.713062 4.048690 -51.684868 -2.561043 8.873785 4.709410 -20.006439 7.627040 14.707603 -6.920918 -4.983284 27.184167 23.989340 6.920009 48.171000 22.552523 10.547876 -11.969870 25.750764 -1.929306 -8.164393 3.492424 1.429926 
